<svg width="239" height="140" viewBox="0 0 239 140" fill="none" xmlns="http://www.w3.org/2000/svg">
<path d="M28.7283 119.724C23.6586 119.724 18.5889 118.034 14.7263 114.414C12.5801 112.723 10.8072 110.606 9.51917 108.197C8.23118 105.787 7.45601 103.137 7.24245 100.414C7.24245 99.931 7.24245 99.4483 7.00104 98.9655V59.6207C7.00104 59.6207 16.899 59.6207 16.899 68.5517V79.8966L18.3475 79.1724C18.5889 79.1724 18.5889 78.931 18.5889 78.931C18.8303 78.931 19.0717 78.6897 19.0717 78.6897C22.1516 76.9098 25.6541 75.9926 29.2111 76.0345H30.1768C34.7637 76.2759 38.6263 77.4828 42.2475 80.1379C47.3172 84 50.2142 88.8276 51.1798 94.6207C51.9041 99.6897 51.1798 104.517 48.7657 108.621C45.1445 114.655 40.3162 118.276 33.798 119.483C31.8667 119.483 30.1768 119.724 28.7283 119.724ZM29.2111 85.2069C28.4869 85.2069 27.7627 85.2069 27.0384 85.4483C20.7616 86.1724 16.899 91.2414 16.899 97.5172V98.4828C16.899 102.103 18.3475 105 21.0031 107.172C23.1758 109.103 26.3142 110.31 29.2111 110.31C31.3839 110.31 33.798 109.586 35.7293 108.621C40.3162 105.966 42.2475 101.621 41.5233 96.069C40.799 90.7586 36.4536 85.2069 29.2111 85.2069ZM166.817 119.724C161.023 119.724 155.471 117.552 151.125 113.207C147.157 109.407 144.82 104.214 144.607 98.7241C144.366 92.6897 146.297 86.8966 150.642 82.5517C154.988 78.2069 160.54 75.5517 166.817 75.5517C178.888 75.5517 189.027 85.4483 189.027 97.5172C189.027 103.31 186.855 108.621 182.751 112.966C178.878 117.006 173.613 119.422 168.024 119.724H166.817ZM167.059 85.2069C166.334 85.2069 165.61 85.2069 164.644 85.4483C161.682 85.9172 158.993 87.4512 157.081 89.7623C155.17 92.0734 154.168 95.0026 154.264 98V98.9655C154.505 105.724 159.816 110.793 166.576 110.793C168.749 110.793 171.163 110.069 173.094 109.103C177.681 106.448 179.371 102.103 178.646 96.5517C178.405 90.5172 173.818 85.2069 167.059 85.2069ZM97.0485 59.6207V119H107.429V68.5517C107.188 59.8621 97.0485 59.6207 97.0485 59.6207ZM112.016 59.6207V119H122.397V68.5517C122.397 59.1379 112.016 59.6207 112.016 59.6207Z" fill="black"/>
<path d="M126.984 119V112.483V97.0345C126.984 93.6552 127.225 90.0345 128.674 86.4138C130.846 81.3448 134.709 78.4483 140.02 76.7586C144.366 75.5517 148.228 75.7931 148.228 75.7931V85.2069C148.228 85.2069 145.814 85.2069 143.4 85.931C140.02 86.8965 137.847 89.069 137.365 92.6897C137.123 94.1379 136.882 96.069 136.882 98V119H126.984ZM192.89 124.793C197.235 124.793 198.442 126.966 199.408 127.931C200.857 129.138 202.788 129.862 204.478 129.862C210.03 129.862 214.376 124.793 214.376 119.966V117.793C211.962 119.241 209.306 119.724 206.651 119.724C196.753 119.724 189.027 111.517 189.027 101.379V76.2759H198.925V100.897C198.925 105.483 202.546 109.586 206.651 109.586C211.237 109.586 214.376 105.724 214.376 100.897V85.2069C214.376 76.2759 224.274 76.2759 224.274 76.2759V119.724C224.274 129.862 216.79 139.276 204.478 139.276C196.994 139.276 190.234 134.931 187.337 127.931C186.372 126 186.13 124.552 186.13 124.552C186.13 124.552 189.269 124.793 192.89 124.793ZM73.1485 110.793C69.0444 110.793 65.6646 108.862 63.4919 105.966L94.8758 94.8621C93.4273 87.6207 90.5303 83.0345 86.1849 79.8965C83.747 78.2067 80.9983 77.0167 78.0978 76.3953C75.1972 75.7738 72.2022 75.7332 69.2859 76.2759C67.8374 76.5172 66.8717 76.7586 65.4232 77.2414C60.9334 78.9058 57.1229 82.0127 54.5889 86.0752C52.055 90.1377 50.9409 94.926 51.4212 99.6897C51.6478 102.573 52.4478 105.382 53.7744 107.951C55.101 110.521 56.9274 112.8 59.1465 114.655C63.4919 118.276 68.803 119.966 74.3556 119.966C76.7697 119.966 78.9424 119.483 81.3566 118.517C90.2889 115.379 94.3929 108.621 95.3586 102.345H89.5646C85.9434 102.345 84.4949 104.759 83.5293 105.724C82.2451 107.243 80.6591 108.477 78.872 109.35C77.0849 110.223 75.1358 110.714 73.1485 110.793ZM69.0444 85.931C69.2859 85.931 69.2859 85.931 69.5273 85.6897H70.2515C71.2172 85.4483 72.1828 85.2069 73.3899 85.2069C75.5626 85.2069 77.7354 85.931 79.6667 86.8965C80.6323 87.3793 81.3566 88.1034 82.0808 88.8276V89.5517L83.0465 90.5172L60.8364 98.2414V97.0345C61.0778 91.7241 64.2162 87.6207 69.0444 85.931ZM182.509 13.2759C180.819 13.2759 179.371 14.7241 179.371 16.4138C179.371 18.1034 181.061 19.7931 182.992 19.3103C183.716 21.9655 185.165 24.3793 187.337 26.069L188.303 26.5517L189.269 25.8276C190.959 24.3793 192.648 21.7241 193.373 19.069H194.097C195.787 19.069 197.235 17.6207 197.235 15.931C197.235 14.2414 195.545 13.0345 193.856 13.0345C191.924 13.0345 190.717 14.4828 190.717 16.1724C190.717 18.3448 189.51 21.2414 188.062 23.1724C186.613 21.4828 185.647 18.8276 185.406 16.1724C185.647 14.7241 184.199 13.2759 182.509 13.2759ZM222.342 41.2759C216.307 26.3103 207.616 21.9655 203.995 20.5172C204.236 19.5517 204.236 18.8276 204.236 17.6207C204.236 8.93103 196.994 1.93103 188.303 1.93103C179.854 1.93103 173.094 8.68965 171.887 17.3793C170.197 38.3793 183.958 49.9655 190.717 55.2759C194.58 58.1724 196.511 60.3448 194.338 63.9655C192.89 65.8965 191.441 68.7931 189.993 69.2759C186.13 70 184.923 72.4138 184.923 72.4138H188.303C192.648 72.4138 193.856 72.1724 198.201 65.1724C202.305 58.1724 195.787 54.3103 193.131 52.1379C186.372 47.069 173.818 36.6897 175.508 17.8621V17.6207C176.232 10.3793 181.543 5.06896 188.544 5.06896C191.014 5.04845 193.435 5.76262 195.498 7.12072C197.561 8.47882 199.174 10.4195 200.131 12.6962C201.089 14.9729 201.347 17.4828 200.875 19.9069C200.402 22.331 199.219 24.5599 197.477 26.3103C195.304 28.7241 192.166 29.931 188.786 29.931C187.579 29.931 186.613 29.6896 185.647 29.4483C182.268 28.4828 180.819 30.8965 180.819 30.8965L180.578 31.1379L180.819 31.3793C182.992 32.8276 186.13 33.5517 188.786 33.5517C193.131 33.5517 196.994 32.1034 199.891 28.9655C201.339 27.5172 202.546 25.8276 203.271 24.1379C206.168 25.3448 213.893 29.2069 219.445 42.7241C220.894 46.1034 222.101 49.4828 223.308 52.3793C218.963 52.3793 203.754 51.8965 196.27 40.069C194.338 36.931 191.2 37.6552 191.2 37.6552C198.925 56.2414 220.894 55.7586 224.998 56C226.929 60.8276 228.619 64.6897 229.343 66.8621C227.654 66.8621 224.274 66.1379 220.411 62.7586C218.761 61.2232 216.824 60.0279 214.711 59.241C212.599 58.4541 210.352 58.091 208.099 58.1724L198.442 73.3793C198.442 73.3793 203.029 73.3793 204.961 70.4828L210.272 62.0345C212.927 62.2759 215.583 63.4828 218.238 65.6552C223.308 69.7586 226.446 70.2414 229.585 70.2414C232.482 70.4828 234.172 69.5172 234.172 69.5172C234.172 69.5172 228.378 56 222.342 41.2759Z" fill="black"/>
</svg>
