<svg width="118" height="27" viewBox="0 0 118 27" fill="none" xmlns="http://www.w3.org/2000/svg">
<path d="M111.966 26.82C108.438 26.82 106.494 24.66 106.494 21.168V12.024H102.822L110.094 4.104V8.748H117.366V12.024H110.094V19.944C110.094 22.176 111.426 23.328 113.55 23.328C115.314 23.328 116.754 22.572 117.618 21.168C117.618 24.804 115.422 26.82 111.966 26.82Z" fill="#E15A1D"/>
<path d="M94.5191 26.82C89.3351 26.82 85.8071 23.256 85.8071 17.64C85.8071 12.096 89.5511 8.20801 95.0231 8.20801C97.6151 8.20801 99.5951 8.85601 100.999 10.116V14.256C99.9551 12.708 98.0471 11.556 95.4191 11.556C91.9271 11.556 89.5871 13.86 89.5871 17.388C89.5871 20.88 91.9271 23.22 95.7431 23.22C98.3351 23.22 100.315 22.14 101.431 20.088C101.431 24.588 98.9111 26.82 94.5191 26.82Z" fill="#E15A1D"/>
<path d="M75.0184 26.82C69.5464 26.82 65.8384 23.436 65.8384 17.604C65.8384 12.096 68.9704 8.20801 74.3704 8.20801C79.9144 8.20801 82.9024 11.664 82.8304 17.928H69.5824C69.7984 21.672 72.6784 23.328 76.4224 23.328C79.0504 23.328 81.4624 22.356 82.5424 20.628C82.5424 24.444 79.7704 26.82 75.0184 26.82ZM69.6184 15.408H79.0144C79.0144 12.996 77.4664 10.8 74.3704 10.8C71.5624 10.8 69.8344 12.636 69.6184 15.408Z" fill="#E15A1D"/>
<path d="M57.6431 26.28V23.652V3.996V0H61.2791V23.508V26.28H57.6431Z" fill="#E15A1D"/>
<path d="M48.1157 26.28V23.652V3.996V0H51.7517V23.508V26.28H48.1157Z" fill="#E15A1D"/>
<path d="M34.2397 26.82C28.9477 26.82 24.9517 23.04 24.9517 17.46C24.9517 11.916 28.9477 8.20801 34.2397 8.20801C39.5317 8.20801 43.5277 11.916 43.5277 17.46C43.5277 23.04 39.5317 26.82 34.2397 26.82ZM34.2397 23.436C37.4797 23.436 39.7837 20.988 39.7837 17.46C39.7837 14.004 37.5157 11.628 34.2397 11.628C30.9277 11.628 28.6957 14.004 28.6957 17.46C28.6957 20.988 30.9637 23.436 34.2397 23.436Z" fill="#E15A1D"/>
<path d="M12.312 26.82C4.932 26.82 0 21.564 0 13.932C0 5.75998 5.184 0.539978 13.032 0.539978C16.524 0.539978 19.404 1.47598 21.456 3.27598V7.99198C19.944 5.61598 16.848 4.10398 13.356 4.10398C7.56 4.10398 3.996 7.73998 3.996 13.608C3.996 19.296 7.776 23.076 13.536 23.076C17.316 23.076 20.376 21.456 21.888 18.288C21.888 23.904 18.54 26.82 12.312 26.82Z" fill="#E15A1D"/>
</svg>
