<svg width="50" height="57" viewBox="0 0 50 57" fill="none" xmlns="http://www.w3.org/2000/svg">
<g clip-path="url(#clip0_6_97)">
<path d="M8.61115 8.99245C7.25941 8.99245 6.10079 10.1404 6.10079 11.4796C6.10079 12.8188 7.45253 14.158 8.99737 13.7754C9.57669 15.8799 10.7353 17.7931 12.4733 19.1323L13.2457 19.515L14.0181 18.941C15.3699 17.7931 16.7216 15.6886 17.3009 13.5841H17.8802C19.232 13.5841 20.3906 12.4362 20.3906 11.097C20.3906 9.75773 19.0389 8.80113 17.6871 8.80113C16.1423 8.80113 15.1767 9.94904 15.1767 11.2883C15.1767 13.0101 14.2112 15.306 13.0526 16.8365C11.894 15.4973 11.1215 13.3928 10.9284 11.2883C11.1215 10.1404 9.96289 8.99245 8.61115 8.99245ZM40.4736 31.1854C35.6459 19.3236 28.6941 15.8799 25.7976 14.732C25.9907 13.9667 25.9907 13.3928 25.9907 12.4362C25.9907 5.54872 20.1975 0.000488281 13.2457 0.000488281C6.48699 0.000488281 1.08003 5.3574 0.114501 12.2449C-1.23724 28.8896 9.76979 38.0728 15.1767 42.2819C18.2664 44.5777 19.8113 46.2995 18.0733 49.1693C16.9147 50.6999 15.7561 52.9957 14.5974 53.3783C11.5077 53.9523 10.5422 55.8655 10.5422 55.8655H13.2457C16.7216 55.8655 17.6871 55.6741 21.163 50.1259C24.4458 44.5777 19.232 41.5166 17.1078 39.7947C11.7008 35.777 1.65935 27.5503 3.01108 12.6275V12.4362C3.5904 6.69663 7.83873 2.48763 13.4388 2.48763C13.4658 2.48763 13.4948 2.48763 13.5218 2.48763C18.9886 2.48763 23.4861 6.94343 23.4861 12.3597C23.4861 14.9692 22.4414 17.4736 20.5837 19.3236C18.8458 21.2368 16.3354 22.1934 13.6319 22.1934C12.6664 22.1934 11.894 22.0021 11.1215 21.8108C8.41805 21.0455 7.25942 22.9587 7.25942 22.9587L7.06631 23.15L7.25942 23.3413C8.99737 24.4892 11.5077 25.0632 13.6319 25.0632C17.1078 25.0632 20.1975 23.9153 22.5148 21.4281C23.6734 20.2802 24.6389 18.941 25.2182 17.6018C27.5355 18.5584 33.7149 21.6195 38.1563 32.3333C39.315 35.0118 40.2805 37.6902 41.246 39.986C37.7701 39.986 25.6045 39.6034 19.6182 30.2288C18.0733 27.7417 15.563 28.3156 15.563 28.3156C21.7423 43.0471 39.3149 42.6645 42.5977 42.8558C44.1426 46.6822 45.4943 49.7433 46.0736 51.4651C44.7219 51.4651 42.0184 50.8912 38.9287 48.2127C36.2639 45.7562 32.7185 44.4476 29.0803 44.5777L21.3561 56.6307C21.3561 56.6307 25.0251 56.6307 26.57 54.3349L30.8183 47.6388C32.9425 47.8301 35.0666 48.7867 37.1908 50.5085C41.246 53.761 43.7564 54.1436 46.2667 54.1436C48.584 54.3349 49.9358 53.5696 49.9358 53.5696C49.9358 53.5696 45.3012 42.8558 40.4736 31.1854Z" fill="#E15A1D"/>
</g>
<defs>
<clipPath id="clip0_6_97">
<rect width="50" height="56.7308" fill="white"/>
</clipPath>
</defs>
</svg>
